<svg id="Layer_1" data-name="Layer 1" xmlns="http://www.w3.org/2000/svg" viewBox="0 0 450.12 129.94"><defs><style>.cls-1{fill:none;stroke:#ff5851;stroke-linecap:round;stroke-miterlimit:10;stroke-width:14px;}.cls-2{fill:#ff5851;}</style></defs><path class="cls-1" d="M710.28,415.47s203.34-44.75,327.42,8.85c58.74,25.38,78.74,63.38,95.74,87.38" transform="translate(-703.28 -390.96)"/><path class="cls-2" d="M1132.15,506.14c-12.8-4.22-26.11-6.77-39.13-10.23-3.39-.9-6.76-1.85-10.09-3a7.56,7.56,0,0,0-9.22,5.24,7.68,7.68,0,0,0,5.23,9.23c12.81,4.22,26.12,6.77,39.13,10.23,3.39.9,6.76,1.85,10.09,2.94a7.56,7.56,0,0,0,9.23-5.23,7.68,7.68,0,0,0-5.24-9.23Z" transform="translate(-703.28 -390.96)"/><path class="cls-2" d="M1140.79,513.25a53.54,53.54,0,0,1,.43-10.28l-.26,2a94.84,94.84,0,0,1,6.68-23.7l-.75,1.79a92.83,92.83,0,0,1,5.52-11.07c2-3.38.88-8.38-2.69-10.26a7.64,7.64,0,0,0-10.26,2.69A105.59,105.59,0,0,0,1129.34,488c-2.41,8.08-4.08,16.79-3.55,25.25.24,3.91,3.27,7.69,7.5,7.5,3.85-.17,7.76-3.31,7.5-7.5Z" transform="translate(-703.28 -390.96)"/></svg>