<svg id="Layer_1" data-name="Layer 1" xmlns="http://www.w3.org/2000/svg" viewBox="0 0 19.89 19.89"><defs><style>.cls-1{fill:#1c1b20;}</style></defs><path class="cls-1" d="M967.5,491.37h-2.94v-4.62c0-1.1,0-2.52-1.54-2.52s-1.77,1.2-1.77,2.44v4.69h-3v-9.49h2.83v1.3h0a3.11,3.11,0,0,1,2.8-1.54c3,0,3.53,2,3.53,4.53v5.21ZM955,480.57a1.71,1.71,0,1,1,1.71-1.71,1.7,1.7,0,0,1-1.71,1.71Zm1.47,10.8h-3v-9.5h3Zm12.53-17H952a1.45,1.45,0,0,0-1.47,1.44h0v17a1.45,1.45,0,0,0,1.47,1.44h17a1.46,1.46,0,0,0,1.48-1.44v-17a1.46,1.46,0,0,0-1.48-1.44Z" transform="translate(-950.55 -474.41)"/></svg>