<?xml version="1.0" encoding="utf-8"?>
<!-- Generator: Adobe Illustrator 25.1.0, SVG Export Plug-In . SVG Version: 6.00 Build 0)  -->
<svg version="1.1" id="Layer_1" xmlns="http://www.w3.org/2000/svg" xmlns:xlink="http://www.w3.org/1999/xlink" x="0px" y="0px"
	 viewBox="0 0 24 24" style="enable-background:new 0 0 24 24;" xml:space="preserve">
<style type="text/css">
	.st0{display:none;}
	.st1{fill:#FFFFFF;}
</style>
<rect class="st0" width="24" height="24"/>
<path class="st1" d="M23.5,12c0,6.4-5.2,11.5-11.5,11.5C5.7,23.5,0.5,18.4,0.5,12C0.5,5.7,5.6,0.5,12,0.5C18.3,0.5,23.5,5.6,23.5,12
	z M10,10.7c0.7-0.1,0.9,0.1,0.7,0.8c-0.1,0.5-0.3,1.1-0.4,1.6c-0.3,1.3-0.7,2.7-1,4c-0.3,1.4,0.6,2.3,2,2.2c1.2-0.1,2.7-1.2,3.1-2.4
	c0-0.1-0.1-0.3-0.1-0.5c-0.2,0-0.4,0-0.5,0.1c-0.2,0.1-0.3,0.3-0.5,0.5c-0.3,0.2-0.8,0.5-1.1,0.2c-0.2-0.2-0.2-0.6-0.1-0.9
	c0.5-2,1-4,1.5-6c0.1-0.6,0-0.7-0.6-0.7c-0.5,0.1-1,0.1-1.4,0.2c-0.6,0.1-1.2,0.1-1.8,0.2c-0.3,0-0.6,0-0.6,0.4
	C9.4,10.8,9.7,10.7,10,10.7C10,10.7,10,10.7,10,10.7z M13,8.1c0.9,0,1.7-0.7,1.7-1.7c0-1-0.7-1.7-1.7-1.7c-0.9,0-1.7,0.7-1.7,1.7
	C11.3,7.3,12,8.1,13,8.1z"/>
</svg>
